<svg width="24" height="24" viewBox="0 0 24 24" fill="none" xmlns="http://www.w3.org/2000/svg">
<g clip-path="url(#clip0_137_2)">
<path fill-rule="evenodd" clip-rule="evenodd" d="M9.88421 1.61599L9.00021 0.731995L8.11621 1.61599L0.616211 9.11599L2.38421 10.884L9.00021 4.26799L14.6162 9.88399L15.5002 10.768L16.3842 9.88399L20.8842 5.38399L23.0002 7.49999L23.5002 6.99999V0.999995H17.5002L17.0002 1.49999L19.1162 3.61599L15.5002 7.23199L9.88421 1.61599ZM4.25021 14.5V23.5H0.750211V14.5H4.25021ZM7.08321 10.5V23.5H10.5832V10.5H7.08321ZM13.4172 23.5V16.5H16.9172V23.5H13.4172ZM19.7502 12.5V23.5H23.2502V12.5H19.7502Z" fill="black"/>
</g>
<defs>
<clipPath id="clip0_137_2">
<rect width="24" height="24" fill="white"/>
</clipPath>
</defs>
</svg>
